<?xml version="1.0" encoding="iso-8859-1"?>
<!-- Generator: Adobe Illustrator 19.0.0, SVG Export Plug-In . SVG Version: 6.00 Build 0)  -->
<svg version="1.1" id="Capa_1" xmlns="http://www.w3.org/2000/svg" xmlns:xlink="http://www.w3.org/1999/xlink" x="0px" y="0px"
	 viewBox="0 0 512 512" style="enable-background:new 0 0 512 512;" xml:space="preserve">
<path style="fill:#87DCFA;" d="M512,256c0,140.487-113.677,256-256,256C114.047,512,0,396.835,0,256C0,114.615,114.615,0,256,0
	C397.649,0,512,114.857,512,256z"/>
<path style="fill:#415A87;" d="M506.174,169.009l-4.583,14.528L415.464,456.31c-6.701,5.341-13.675,10.356-20.902,15.023v0.011
	C354.727,497.04,307.213,512,256,512c-5.257,0-10.472-0.158-15.656-0.474l-117.702-36.937
	c-21.745-13.296-41.33-29.752-58.134-48.705l128.89-408.816c2.413-7.68,10.588-11.947,18.258-9.535L441.613,79.7l21.45,6.732
	C497.756,97.326,517.068,134.295,506.174,169.009z"/>
<path style="fill:#5F82C3;" d="M397.775,73.653v377.031c0,0.358,0,0.716-0.011,1.075c-0.105,6.827-1.222,13.391-3.203,19.575v0.011
	C354.727,497.04,307.213,512,256,512c-82.408,0-155.397-38.802-202.143-98.917V21.619c0-8.144,6.521-14.76,14.56-14.76h263.491
	c22.314,0,42.026,11.241,53.941,28.456C393.361,46.166,397.775,59.388,397.775,73.653z"/>
<path style="fill:#6E96DC;" d="M397.775,72.736v371.879c0,0.358,0,0.716-0.011,1.064c-20.955,5.805-43.037,8.902-65.846,8.902
	c-136.128,0-246.487-110.358-246.487-246.487c0-83.093,41.12-156.588,104.121-201.237h142.354
	C368.286,6.859,397.775,36.347,397.775,72.736z"/>
<path style="fill:#B9DCFF;" d="M295.378,340.568c92.991-61.074,64.854-207.26-46.18-227.824
	c-98.801-19.38-181.659,84.065-135.956,178.115C146.241,358.686,232.644,382.435,295.378,340.568z M155.934,316.647
	c4.906-3.692,10.077-6.966,15.455-9.818c6.467,11.699,14.537,22.323,23.99,31.49C180.313,333.795,166.738,326.084,155.934,316.647z
	 M119.303,226.778c1.806-20.737,9.907-40.794,23.975-57.951c6.394,4.957,13.187,9.303,20.292,13.006
	c-5.614,14.223-8.966,29.404-9.919,44.945H119.303z M195.553,133.562c-9.106,8.82-17.244,19.253-24.037,31.469
	c-5.309-2.808-10.414-6.03-15.264-9.657C168.451,144.655,181.232,137.782,195.553,133.562z M295.979,155.267
	c-4.819,3.615-9.895,6.822-15.169,9.628c-6.389-11.516-14.39-21.975-23.838-31.064C271.866,138.407,284.622,145.39,295.979,155.267z
	 M332.324,226.778h-33.947c-0.912-15.867-4.216-31.033-9.673-45.049c7.146-3.738,13.976-8.125,20.401-13.132
	C322.236,184.769,330.438,204.805,332.324,226.778z M309.287,303.331c-6.465-5.054-13.341-9.48-20.537-13.246
	c5.377-13.909,8.659-28.966,9.602-44.744h34.027C330.633,267.016,322.533,287.04,309.287,303.331z M235.323,332.464v-38.842
	c9.749,0.773,19.297,2.768,28.443,5.889C256.465,312.3,246.87,323.476,235.323,332.464z M235.323,275.005V245.34h44.435
	c-0.893,13.133-3.638,25.667-8.042,37.274C260.066,278.438,247.829,275.86,235.323,275.005z M263.667,172.315
	c-9.117,3.103-18.63,5.088-28.343,5.858V139.61C246.835,148.576,256.388,159.665,263.667,172.315z M216.761,139.646v38.527
	c-9.596-0.762-18.997-2.7-28.013-5.738C196.061,159.708,205.54,148.519,216.761,139.646z M235.323,196.789
	c12.489-0.854,24.71-3.428,36.346-7.595c4.478,11.712,7.242,24.355,8.111,37.584h-44.457L235.323,196.789L235.323,196.789z
	 M180.674,189.291c11.557,4.112,23.69,6.651,36.087,7.498v29.989h-44.495C173.201,213.738,176.082,201.08,180.674,189.291z
	 M216.761,245.34v29.665c-12.457,0.852-24.649,3.412-36.259,7.56c-4.492-11.665-7.323-24.207-8.246-37.225L216.761,245.34
	L216.761,245.34z M216.761,293.621v38.78c-11.378-8.953-20.929-20.172-28.251-32.959
	C197.598,296.358,207.08,294.389,216.761,293.621z M256.855,338.353c9.531-9.155,17.607-19.733,24.043-31.412
	c5.305,2.827,10.408,6.061,15.252,9.705C284.526,326.8,271.243,334.015,256.855,338.353z M119.365,245.34h34.299
	c0.973,15.624,4.348,30.686,9.825,44.661c-7.199,3.756-14.078,8.17-20.547,13.214C129.673,286.811,121.323,266.279,119.365,245.34z"
	/>
<g>
</g>
<g>
</g>
<g>
</g>
<g>
</g>
<g>
</g>
<g>
</g>
<g>
</g>
<g>
</g>
<g>
</g>
<g>
</g>
<g>
</g>
<g>
</g>
<g>
</g>
<g>
</g>
<g>
</g>
</svg>
