<svg height="512pt" viewBox="0 0 512 512" width="512pt" xmlns="http://www.w3.org/2000/svg"><path d="m226 60-30 30-30-30v-60h60zm0 0" fill="#ff9f00"/><path d="m166 60h60v91h-60zm0 0" fill="#5a5a5a"/><path d="m346 60-30 30-30-30v-60h60zm0 0" fill="#ff9f00"/><path d="m286 60h60v91h-60zm0 0" fill="#5a5a5a"/><path d="m121 121h270v75h-270zm0 0" fill="#c6e2e7"/><path d="m256 121h135v75h-135zm0 0" fill="#a8d3d8"/><path d="m91 181h330v151h-330zm0 0" fill="#73bcff"/><path d="m256 181h165v151h-165zm0 0" fill="#3aaaff"/><path d="m456.097656 340.398438-71.996094 142.800781h-256.203124l-71.996094-142.800781 200.097656-100.199219zm0 0" fill="#6e6e6e"/><path d="m456.097656 340.398438-71.996094 142.800781h-128.101562v-243zm0 0" fill="#444"/><path d="m181 362h30v30h-30zm0 0" fill="#9ed0ff"/><path d="m301 362h30v30h-30zm0 0" fill="#3aaaff"/><path d="m512 452.597656v30c-15.300781-1.796875-29.800781 5.101563-40.902344 13.203125-15 10.800781-32.695312 16.199219-50.097656 16.199219s-35.097656-5.398438-50.097656-16.199219c-19.503906-14.101562-45.300782-14.101562-64.800782 0-15.003906 10.800781-32.699218 16.199219-50.101562 16.199219s-35.097656-5.398438-50.097656-16.199219c-19.503906-14.101562-45.300782-14.101562-64.800782 0-30 21.597657-70.199218 21.597657-100.199218 0-11.101563-8.101562-25.902344-15-39.402344-13.5h-1.5v-29.703125c19.5-2.398437 41.5 6.300782 58.597656 18.898438 19.503906 14.101562 45.300782 14.101562 64.800782 0 30-21.898438 70.199218-21.898438 100.199218 0 9.601563 6.902344 21.003906 10.503906 32.402344 10.503906s22.800781-3.601562 32.402344-10.5c30-21.898438 70.199218-21.898438 100.199218 0 19.5 14.101562 45.296876 14.101562 64.800782 0 16.796875-12.300781 38.199218-20.699219 58.597656-18.902344zm0 0" fill="#c6e2e7"/><path d="m512 452.597656v30c-15.300781-1.796875-29.800781 5.101563-40.902344 13.203125-15 10.800781-32.695312 16.199219-50.097656 16.199219s-35.097656-5.398438-50.097656-16.199219c-19.503906-14.101562-45.300782-14.101562-64.800782 0-15.003906 10.800781-32.699218 16.199219-50.101562 16.199219v-30c11.398438 0 22.800781-3.601562 32.402344-10.5 30-21.898438 70.199218-21.898438 100.199218 0 19.5 14.101562 45.296876 14.101562 64.800782 0 16.796875-12.300781 38.199218-20.699219 58.597656-18.902344zm0 0" fill="#a8d3d8"/></svg>