<?xml version="1.0" encoding="utf-8"?>
<!-- Generator: Adobe Illustrator 17.0.0, SVG Export Plug-In . SVG Version: 6.00 Build 0)  -->
<!DOCTYPE svg PUBLIC "-//W3C//DTD SVG 1.1//EN" "http://www.w3.org/Graphics/SVG/1.1/DTD/svg11.dtd">
<svg version="1.1" id="Layer_1" xmlns="http://www.w3.org/2000/svg" xmlns:xlink="http://www.w3.org/1999/xlink" x="0px" y="0px"
	 width="22px" height="22px" viewBox="0 0 22 22" enable-background="new 0 0 22 22" xml:space="preserve">
<rect x="-0.085" y="-0.045" fill="#69C6B9" width="22.045" height="22.045"/>
<g>
	<path fill="#FFFFFF" d="M21.96,4.543c-1.231,0.392-2.294,0.895-3.189,1.511c-2.462-1.231-5.092-2.014-7.609-2.462l0.727-3.581
		h-1.231L9.986,3.424C5.902,2.697,2.209,2.865-0.085,3.089v0.615c2.294-0.224,5.931-0.336,9.959,0.28L7.748,14.503l1.511,5.036
		l-7.162-3.469c2.742-1.679,4.588-4.196,5.259-7.162C7.468,8.292,7.524,7.9,7.524,7.9L6.349,7.733c0,0-0.056,0.392-0.168,0.951
		c-0.615,2.853-2.574,5.315-5.427,6.77l-0.839-0.392v0.671l0.168,0.056c-0.056,0.056-0.112,0.056-0.168,0.112V17.3
		c0.28-0.224,0.615-0.448,1.007-0.615c0.168-0.112,0.336-0.168,0.56-0.28l8.113,3.861L10.098,22h1.231l-0.336-1.063L13.175,22h1.399
		l-3.805-1.79l-1.734-5.819l2.07-10.239c2.35,0.448,4.812,1.175,7.106,2.294c-3.301,2.406-4.196,5.483-4.252,5.651l1.175,0.28
		c0-0.056,0.839-3.077,4.308-5.315c0.839,0.504,1.734,1.007,2.518,1.623V7.956c-0.615-0.448-1.287-0.895-1.902-1.287
		c0.56-0.336,1.231-0.615,1.902-0.895V4.543L21.96,4.543z"/>
	<path fill="#FFFFFF" d="M9.986,1.354l-0.28,1.511C9.091,2.809,8.476,2.697,7.748,2.641c0,0,0,0.056-0.056,0.056
		C7.468,3.089,7.245,3.536,7.133,4.04c0.783,0.056,1.567,0.168,2.294,0.224L8.811,7.229C8.084,6.725,7.58,6.11,7.245,5.327
		C7.133,5.103,7.077,4.823,7.021,4.487c-0.168,0.671-0.224,1.399-0.28,1.958v0.056c0.056,0.168,0.112,0.336,0.112,0.56
		c0.056,0.504,0.168,0.895,0.336,1.287c0.112,0.168,0.168,0.28,0.28,0.448c1.287,1.679,4.252,1.958,6.546,1.007
		c-1.007-0.671-2.126-1.231-3.245-1.623h-0.056l0.727-3.581c1.958,0.392,3.805,0.951,5.539,1.679c0.056-0.448,0-0.895-0.112-1.399
		c0-0.056,0-0.168-0.056-0.224c-1.623-0.615-3.301-1.119-5.092-1.511l0.504-2.406C11.217,0.851,10.49,1.074,9.986,1.354z"/>
	<path fill="#FFFFFF" d="M2.657-0.045c-0.448,1.846-0.783,4.588,0.28,7.162C4,9.635,6.07,11.481,9.203,12.544
		c4.644,1.623,6.714,5.987,7.609,9.4h4.364c-0.951-4.476-3.525-10.91-10.519-13.372C8.699,7.9,7.524,6.893,6.909,5.495
		C6.014,3.368,6.741,0.851,7.077-0.101h-4.42V-0.045z"/>
</g>
<g>
	<path fill="#445C6D" d="M5.342,7.788l0.504-0.336c-0.448-0.615-0.783-1.287-0.951-2.07L4.335,5.55
		C4.503,6.334,4.895,7.117,5.342,7.788z"/>
	<path fill="#445C6D" d="M4.223,1.186c-0.112,0.727-0.224,1.399-0.224,2.07c0,0.112,0,0.28,0,0.392h0.615c0-0.112,0-0.28,0-0.392
		c0-0.615,0.056-1.287,0.168-1.958L4.223,1.186z"/>
	<path fill="#445C6D" d="M15.917,14.67c-0.504-0.671-1.063-1.287-1.679-1.79l-0.392,0.448c0.56,0.504,1.119,1.063,1.623,1.734
		L15.917,14.67z"/>
	<path fill="#445C6D" d="M18.715,20.042l-0.56,0.168c0.168,0.56,0.336,1.175,0.504,1.734h0.615
		C19.106,21.329,18.938,20.657,18.715,20.042z"/>
	<path fill="#445C6D" d="M16.98,16.181l-0.504,0.336c0.392,0.671,0.727,1.343,1.063,2.126l0.56-0.224
		C17.763,17.58,17.372,16.853,16.98,16.181z"/>
</g>
<rect x="13.098" y="12.15" transform="matrix(0.8108 -0.5854 0.5854 0.8108 -5.3008 10.924)" fill="#364C5E" width="2.294" height="3.022"/>
<path fill="#445C6D" d="M15.467,5.301C13.509,2.615,9.704,2,6.963,3.958C4.277,5.916,3.661,9.721,5.62,12.407
	c1.958,2.742,5.763,3.301,8.449,1.343C16.81,11.847,17.425,8.043,15.467,5.301z M12.949,12.239
	c-1.846,1.343-4.476,0.951-5.819-0.951C5.788,9.441,6.179,6.812,8.082,5.469C9.928,4.126,12.558,4.518,13.9,6.42
	S14.852,10.896,12.949,12.239z"/>
<path fill="#F15942" d="M18.6,16.939l-1.958-2.742c-0.168-0.224-0.448-0.28-0.671-0.112l-2.07,1.511
	c-0.224,0.168-0.28,0.448-0.112,0.671l1.958,2.742c0.56,0.783,1.679,1.007,2.518,0.392C18.992,18.897,19.16,17.778,18.6,16.939z"/>
<path fill="#F3705C" d="M17.15,13.691c-0.224-0.28-0.56-0.336-0.839-0.168l-2.853,2.07c-0.28,0.168-0.28,0.56-0.112,0.839
	c0.224,0.28,0.56,0.336,0.839,0.168l2.853-2.07C17.318,14.363,17.373,13.971,17.15,13.691z"/>
</svg>
